<?xml version="1.0" encoding="UTF-8"?>
<svg class="bi bi-mouse" width="16" height="16" fill="currentColor" version="1.1" viewBox="0 0 16 16" xmlns="http://www.w3.org/2000/svg">
 <path d="M8 3a.5.5 0 0 1 .5.5v2a.5.5 0 0 1-1 0v-2A.5.5 0 0 1 8 3zm4 8a4 4 0 0 1-8 0V5a4 4 0 1 1 8 0v6zM8 0a5 5 0 0 0-5 5v6a5 5 0 0 0 10 0V5a5 5 0 0 0-5-5z"/>
 <g fill="none" stroke="#000">
  <path d="m3.5276 7.783h8.9029" stroke-width=".62362"/>
  <path d="m8.0039 5.6523v2.1641" stroke-width=".24567"/>
  <path d="m8 0.83594v2.1641" stroke-width=".24567"/>
 </g>
 <path d="m7.7585 0.96613c-1.2353 0.069511-2.4189 0.74441-3.1039 1.7755-0.4212 0.62264-0.66896 1.3618-0.69038 2.1145-0.020953 0.87069-0.011867 1.7417-0.014201 2.6126 0.033652 0.093471 0.16187 0.032652 0.23749 0.049988h3.6875c0.093471-0.033652 0.032652-0.16187 0.049988-0.23749-0.00399-0.43427 0.00793-0.87168-0.00592-1.304-0.046192-0.065173-0.15418-0.05802-0.20963-0.1236-0.11635-0.090121-0.16705-0.23798-0.15512-0.38211-0.0048111-0.67813-0.010991-1.3567 0.0038758-2.0346 0.0033477-0.18482 0.15969-0.34016 0.33353-0.38147 0.06992-0.064116 0.016622-0.18023 0.033264-0.26587v-1.7739c-0.014508-0.078083-0.11184-0.042388-0.16647-0.0495z" fill="#0d0d0d" stroke="#000" stroke-linecap="square" stroke-linejoin="round" stroke-opacity=".80237" stroke-width=".0038386"/>
</svg>
