<?xml version="1.0" encoding="UTF-8" standalone="no"?>
<svg
   width="12.365491"
   height="18.26376"
   fill="currentColor"
   class="bi bi-mouse"
   viewBox="0 0 12.365491 18.26376"
   version="1.1"
   id="svg834"
   sodipodi:docname="mouse-double-click.svg"
   inkscape:version="1.1.1 (3bf5ae0d25, 2021-09-20)"
   xmlns:inkscape="http://www.inkscape.org/namespaces/inkscape"
   xmlns:sodipodi="http://sodipodi.sourceforge.net/DTD/sodipodi-0.dtd"
   xmlns="http://www.w3.org/2000/svg"
   xmlns:svg="http://www.w3.org/2000/svg">
  <defs
     id="defs838" />
  <sodipodi:namedview
     id="namedview836"
     pagecolor="#505050"
     bordercolor="#eeeeee"
     borderopacity="1"
     inkscape:pageshadow="0"
     inkscape:pageopacity="0"
     inkscape:pagecheckerboard="0"
     showgrid="false"
     inkscape:zoom="32"
     inkscape:cx="-4.84375"
     inkscape:cy="9.234375"
     inkscape:window-width="2560"
     inkscape:window-height="1361"
     inkscape:window-x="-9"
     inkscape:window-y="-9"
     inkscape:window-maximized="1"
     inkscape:current-layer="svg834"
     height="17px"
     fit-margin-top="0"
     fit-margin-left="0"
     fit-margin-right="0"
     fit-margin-bottom="0" />
  <path
     d="m 7.3654913,5.2637593 a 0.5,0.5 0 0 1 0.5,0.5 v 2 a 0.5,0.5 0 0 1 -1,0 v -2 a 0.5,0.5 0 0 1 0.5,-0.5 z m 3.9999997,7.9999997 a 4,4 0 0 1 -7.9999997,0 V 7.2637593 a 4,4 0 1 1 7.9999997,0 z M 7.3654913,2.2637593 a 5,5 0 0 0 -5,5 v 5.9999997 a 5,5 0 0 0 9.9999997,0 V 7.2637593 a 5,5 0 0 0 -4.9999997,-5 z"
     id="path832" />
  <path
     style="fill:none;stroke:#000000;stroke-width:0.623622;stroke-linecap:butt;stroke-linejoin:miter;stroke-miterlimit:4;stroke-dasharray:none;stroke-opacity:1"
     d="M 2.8930504,10.046786 H 11.795937"
     id="path972" />
  <path
     style="fill:none;stroke:#000000;stroke-width:0.245669;stroke-linecap:butt;stroke-linejoin:miter;stroke-miterlimit:4;stroke-dasharray:none;stroke-opacity:1"
     d="m 7.3693976,7.916103 v 2.164063"
     id="path974" />
  <path
     style="fill:none;stroke:#000000;stroke-width:0.245669;stroke-linecap:butt;stroke-linejoin:miter;stroke-miterlimit:4;stroke-dasharray:none;stroke-opacity:1"
     d="M 7.3654913,3.0996968 V 5.2637593"
     id="path974-4" />
  <path
     style="fill:none;stroke:#000000;stroke-width:0.623622;stroke-linecap:butt;stroke-linejoin:miter;stroke-miterlimit:4;stroke-dasharray:none;stroke-opacity:1"
     d="m 1.4279913,6.4825093 c 0.59375,-5.125 5.59375,-5.0625 5.59375,-5.0625"
     id="path15654"
     sodipodi:nodetypes="cc" />
  <path
     style="fill:none;stroke:#000000;stroke-width:0.623622;stroke-linecap:butt;stroke-linejoin:miter;stroke-miterlimit:4;stroke-dasharray:none;stroke-opacity:1"
     d="M 0.31090129,6.4117154 C 0.81090127,-0.11953457 7.1234013,0.31796543 7.1234013,0.31796543"
     id="path15654-9"
     sodipodi:nodetypes="cc" />
</svg>
