<?xml version="1.0" encoding="UTF-8"?>
<svg class="bi bi-mouse" width="16" height="16" fill="currentColor" version="1.1" viewBox="0 0 16 16" xmlns="http://www.w3.org/2000/svg">
 <path d="M8 3a.5.5 0 0 1 .5.5v2a.5.5 0 0 1-1 0v-2A.5.5 0 0 1 8 3zm4 8a4 4 0 0 1-8 0V5a4 4 0 1 1 8 0v6zM8 0a5 5 0 0 0-5 5v6a5 5 0 0 0 10 0V5a5 5 0 0 0-5-5z"/>
 <g fill="none" stroke="#000">
  <path d="m3.5276 7.783h8.9029" stroke-width=".62362"/>
  <path d="m8.0039 5.6523v2.1641" stroke-width=".24567"/>
  <path d="m8 0.83594v2.1641" stroke-width=".24567"/>
 </g>
 <path d="m8.0899 0.97998c-0.035527 0.13582-0.0045079 0.2853-0.014923 0.42627 0.00395 0.53845-0.0079 1.08 0.00592 1.6165 0.046196 0.065173 0.15419 0.05802 0.20963 0.1236 0.11635 0.090121 0.16705 0.23798 0.15512 0.38211 0.00481 0.67813 0.010991 1.3567-0.00388 2.0346-0.00201 0.1878-0.1644 0.33386-0.33042 0.38948-0.047657 0.080077-0.00752 0.19334-0.020746 0.28603 0.00398 0.41447-0.00793 0.83206 0.00592 1.2446 0.050563 0.073327 0.16902 0.0187 0.2472 0.035526h3.6562c0.09348-0.033652 0.03264-0.16187 0.04996-0.23749-0.0072-0.88203 0.01822-1.7652-0.02875-2.6464-0.10111-1.2263-0.80959-2.3794-1.8461-3.0393-0.59525-0.37087-1.2852-0.60466-1.9884-0.62989-0.033569 7.097e-5 -0.066901-0.004461-0.096771 0.014343z" fill="#0d0d0d" stroke="#000" stroke-linecap="square" stroke-linejoin="round" stroke-opacity=".80237" stroke-width=".0038386"/>
</svg>
